<svg width="700" height="420" viewBox="0 0 700 420" fill="none" xmlns="http://www.w3.org/2000/svg">
<ellipse cx="204" cy="75.3829" rx="128.599" ry="28.2233" transform="rotate(-21.4849 204 75.3829)" fill="#AC8666"/>
<ellipse cx="211.707" cy="93.5646" rx="115.454" ry="31.8047" transform="rotate(-21.4849 211.707 93.5646)" fill="#462B13"/>
<path fill-rule="evenodd" clip-rule="evenodd" d="M397.53 331.626C397.744 331.91 397.918 332.214 398.051 332.536C401.686 341.361 373.36 361.399 334.781 377.293C296.203 393.187 261.982 398.917 258.346 390.093C258.171 389.668 258.07 389.216 258.041 388.741C239.845 320.871 189.723 219.342 85.3318 124.125C178.258 145.374 278.479 76.8687 324.149 29.9298C314 114.293 351.742 264.307 397.729 331.544L397.53 331.626Z" fill="#FFCFA8"/>
<path d="M370 359.5C346 319 293.6 205.2 276 74.0001C284.5 68.5001 294 61.5001 323.5 35.0001C313.5 178.5 386 317.5 397.5 333.5C401.99 339.748 380.666 353.667 370 359.5Z" fill="#FFD8B8"/>
<path d="M379 352.5C360.329 311.938 310.692 188.902 297 57.5C302.5 45.5 302.5 51.5 323.5 34.5C315.72 178.221 389.553 315.975 398.5 332C401.994 338.257 384 352.5 379 352.5Z" fill="#FFE4CD"/>
<path d="M305 387C292.628 340.508 246.054 221.939 161.5 123.5C151.125 127.386 136.519 122.712 95 131.5C192.5 221 255.105 371.382 258.5 391.5C259.826 399.356 292.775 392.554 305 387Z" fill="#F5C39A"/>
<path d="M278.5 394C266.128 347.508 217.554 225.939 133 127.5C122.625 131.386 136.519 122.712 95 131.5C192.5 221 255.105 371.382 258.5 391.5C259.826 399.356 265 394 278.5 394Z" fill="#E5B68F"/>
<path fill-rule="evenodd" clip-rule="evenodd" d="M330.526 143.766C314.859 166.022 262.803 212.8 159.934 203.678L159.229 202.78L154.789 203.097L154.986 203.199L154.789 203.179C175.41 226.996 197.668 261.399 221.562 304.733C252.221 307.6 322.638 299.176 359.036 242.544C351.861 225.733 336.886 167.211 333.217 139.958L333.347 139.666L333.18 139.681C333.179 139.676 333.179 139.671 333.178 139.666C333.175 139.671 333.172 139.677 333.169 139.682L329.858 139.983L330.526 143.766Z" fill="#2E1B0C"/>
<path d="M198.239 111.122C178.575 119.262 94.8464 139.348 84.0634 121.271C75.8172 100.973 164.291 58.367 189.359 49.2764C218.22 38.8103 324.149 11.2178 322.246 29.93C271.502 78.4546 226.36 99.1754 198.239 111.122Z" stroke="#6B411D" stroke-width="9"/>
<path d="M644.023 214.419C606.523 300.919 547.305 334.14 490.305 346C317.283 382 345.305 249.5 347.805 221.5C370.305 120 458.232 54.4194 540.523 54.4194C622.813 54.4194 671.023 122.419 644.023 214.419Z" fill="#6B411D"/>
<path d="M398.5 308.5C490.305 286 520 135 607 105.5C500 127.5 513.046 197 398.5 308.5Z" fill="#462B13"/>
<path d="M397 333.5C540.5 345.5 606 215.5 635.5 128C668.5 238 545 385 397 333.5Z" fill="#834B1D"/>
<path d="M402.5 307C458 270.5 524 139 564 120.5C510.5 141 460.5 260.5 402.5 307Z" fill="#2E1B0C"/>
<path d="M353.5 236.5C333.5 325.3 391 349.667 426 351C342.8 348.2 339.5 273.5 342.5 248C349.559 188 364 165.5 398 122.5C448 64.0001 540.5 34.5 598 67.5001C496 30.0001 378.5 125.5 353.5 236.5Z" fill="#523216"/>
<path d="M363.5 275.5C413 127 488 115.5 520.5 75.9999C520.5 75.9999 363.5 140.5 363.5 275.5Z" fill="#54361D"/>
<path d="M398 309C491.5 282.5 517.5 139.5 607 106C510.5 176.5 482.5 312 398 309Z" fill="#7E4D22"/>
<mask id="path-17-outside-1_12_2" maskUnits="userSpaceOnUse" x="100" y="84" width="472" height="270" fill="black">
<rect fill="white" x="100" y="84" width="472" height="270"/>
<path d="M149.633 93.85C141.033 93.85 133.883 97.4 128.183 104.5C122.483 111.6 119.633 120.8 119.633 132.1C119.633 145.3 122.633 155.65 128.633 163.15C134.633 170.65 141.833 174.4 150.233 174.4C155.233 174.4 160.183 172.7 165.083 169.3C169.983 165.8 173.133 162.1 174.533 158.2L178.133 160C175.833 165.5 172.183 170.15 167.183 173.95C162.283 177.65 155.633 179.5 147.233 179.5C133.933 179.5 123.383 175.2 115.583 166.6C107.883 157.9 104.033 147.5 104.033 135.4C104.033 121.4 108.483 110.15 117.383 101.65C126.383 93.05 137.083 88.75 149.483 88.75C152.383 88.75 155.733 89.5 159.533 91C163.333 92.5 165.533 93.25 166.133 93.25C167.333 93.25 167.933 92.25 167.933 90.25H171.383L172.883 109.3H169.583C168.883 104.8 166.883 101.1 163.583 98.2C160.383 95.3 155.733 93.85 149.633 93.85ZM202.829 133C202.829 139.6 203.729 145.95 205.529 152.05C207.429 158.05 210.479 163.3 214.679 167.8C218.979 172.2 224.079 174.4 229.979 174.4C235.879 174.4 240.829 172.3 244.829 168.1C248.929 163.9 251.779 159 253.379 153.4C255.079 147.7 255.929 141.7 255.929 135.4C255.929 128.9 254.979 122.6 253.079 116.5C251.179 110.3 248.079 105 243.779 100.6C239.579 96.1 234.579 93.85 228.779 93.85C224.279 93.85 220.279 95.05 216.779 97.45C213.379 99.85 210.679 103.05 208.679 107.05C206.779 110.95 205.329 115.1 204.329 119.5C203.329 123.9 202.829 128.4 202.829 133ZM187.829 134.2C187.829 121.7 191.729 111 199.529 102.1C207.329 93.2 217.279 88.75 229.379 88.75C241.479 88.75 251.429 93.2 259.229 102.1C267.029 111 270.929 121.7 270.929 134.2C270.929 146.7 266.979 157.4 259.08 166.3C251.279 175.1 241.379 179.5 229.379 179.5C217.179 179.5 207.179 175.1 199.379 166.3C191.679 157.5 187.829 146.8 187.829 134.2ZM282.598 178V174.85C287.998 174.85 291.148 173.85 292.048 171.85V96.4C291.148 94.4 287.998 93.4 282.598 93.4V90.25H343.048V104.8H339.898C339.898 99.4 338.898 96.25 336.898 95.35H305.848V129.85H326.848C328.848 128.95 329.848 125.8 329.848 120.4H332.998V144.4H329.848C329.848 139 328.848 135.85 326.848 134.95H305.848V171.85C306.748 173.85 309.898 174.85 315.298 174.85V178H282.598ZM353.057 178V174.85C358.457 174.85 361.607 173.85 362.507 171.85V96.4C361.607 94.4 358.457 93.4 353.057 93.4V90.25H413.507V104.8H410.357C410.357 99.4 409.357 96.25 407.357 95.35H376.307V129.85H397.307C399.307 128.95 400.307 125.8 400.307 120.4H403.457V144.4H400.307C400.307 139 399.307 135.85 397.307 134.95H376.307V171.85C377.207 173.85 380.357 174.85 385.757 174.85V178H353.057ZM423.516 178V174.85C428.916 174.85 432.066 173.85 432.966 171.85V96.4C432.066 94.4 428.916 93.4 423.516 93.4V90.25H483.966V104.8H480.816C480.816 99.4 479.816 96.25 477.816 95.35H446.766V129.85H467.766C469.766 128.95 470.766 125.8 470.766 120.4H473.916V144.4H470.766C470.766 139 469.766 135.85 467.766 134.95H446.766V172.9H480.966C483.466 171.8 485.716 168.65 487.716 163.45H490.716L487.116 178H423.516ZM499.541 178V174.85C504.941 174.85 508.091 173.85 508.991 171.85V96.4C508.091 94.4 504.941 93.4 499.541 93.4V90.25H559.991V104.8H556.841C556.841 99.4 555.841 96.25 553.841 95.35H522.791V129.85H543.791C545.791 128.95 546.791 125.8 546.791 120.4H549.941V144.4H546.791C546.791 139 545.791 135.85 543.791 134.95H522.791V172.9H556.991C559.491 171.8 561.741 168.65 563.741 163.45H566.741L563.141 178H499.541ZM258.192 260.25V263.4C253.492 263.4 250.592 264 249.492 265.2L265.842 293.85L283.692 265.8C282.692 264.2 279.642 263.4 274.542 263.4V260.25H299.142V263.4C294.242 263.4 291.242 264.25 290.142 265.95L268.842 299.1L293.292 341.7C294.392 343.8 297.592 344.85 302.892 344.85V348H270.042V344.85C274.742 344.85 277.642 344.25 278.742 343.05L260.892 311.7L241.092 342.45C242.092 344.05 245.142 344.85 250.242 344.85V348H225.642V344.85C230.642 344.85 233.842 343.75 235.242 341.55L257.742 306.45L234.942 266.4C233.842 264.4 230.642 263.4 225.342 263.4V260.25H258.192ZM317.052 311.85C317.152 320.25 319.552 327.7 324.252 334.2C329.052 340.6 334.402 343.8 340.302 343.8C349.002 343.8 356.002 340.5 361.302 333.9L364.902 335.7C362.002 340.5 358.202 344 353.502 346.2C348.902 348.4 342.802 349.5 335.202 349.5C331.402 349.5 327.752 348.95 324.252 347.85C320.752 346.65 317.302 344.75 313.902 342.15C310.502 339.45 307.802 335.5 305.802 330.3C303.802 325.1 302.802 318.9 302.802 311.7C302.802 302.9 305.502 295.5 310.902 289.5C316.402 283.5 324.002 280.5 333.702 280.5C344.302 280.5 352.202 283.5 357.402 289.5C362.602 295.4 365.202 302.85 365.202 311.85H317.052ZM317.202 307.2H350.502C349.902 300 348.352 294.5 345.852 290.7C343.452 286.9 339.202 285 333.102 285C329.602 285 326.202 287.05 322.902 291.15C319.702 295.25 317.802 300.6 317.202 307.2ZM408.277 349.5C403.377 349.5 398.377 348.75 393.277 347.25C388.177 345.75 385.527 345 385.327 345C384.727 345 384.027 345.3 383.227 345.9C382.427 346.5 382.027 347.2 382.027 348H378.577V327.15H381.877C382.977 333.15 385.927 337.55 390.727 340.35C395.627 343.05 401.177 344.4 407.377 344.4C412.677 344.4 417.027 343.2 420.427 340.8C423.827 338.4 425.527 334.8 425.527 330C425.527 327.8 425.027 325.8 424.027 324C423.127 322.2 421.677 320.55 419.677 319.05C417.777 317.45 415.927 316.15 414.127 315.15C412.327 314.05 409.977 312.75 407.077 311.25C404.277 309.65 402.127 308.4 400.627 307.5C397.127 305.3 394.527 303.65 392.827 302.55C391.127 301.35 388.927 299.6 386.227 297.3C383.627 295 381.727 292.6 380.527 290.1C379.327 287.6 378.727 284.9 378.727 282C378.727 276.1 381.427 270.75 386.827 265.95C392.227 261.15 398.277 258.75 404.977 258.75C407.877 258.75 411.477 259.5 415.777 261C420.077 262.5 422.527 263.25 423.127 263.25C424.327 263.25 424.927 262.25 424.927 260.25H428.377L429.877 279.3H426.577C425.977 274.9 423.777 271.25 419.977 268.35C416.177 265.35 411.227 263.85 405.127 263.85C400.527 263.85 396.827 265.35 394.027 268.35C391.327 271.25 389.977 274.2 389.977 277.2C389.977 279.1 390.427 280.9 391.327 282.6C392.227 284.2 393.627 285.7 395.527 287.1C397.427 288.5 399.227 289.75 400.927 290.85C402.627 291.85 404.877 293.1 407.677 294.6C410.577 296.1 412.777 297.3 414.277 298.2C418.377 300.7 421.327 302.55 423.127 303.75C424.927 304.95 427.227 306.8 430.027 309.3C432.927 311.8 434.927 314.4 436.027 317.1C437.227 319.7 437.827 322.6 437.827 325.8C437.827 333.2 434.827 339 428.827 343.2C422.827 347.4 415.977 349.5 408.277 349.5Z"/>
</mask>
<path d="M149.633 93.85C141.033 93.85 133.883 97.4 128.183 104.5C122.483 111.6 119.633 120.8 119.633 132.1C119.633 145.3 122.633 155.65 128.633 163.15C134.633 170.65 141.833 174.4 150.233 174.4C155.233 174.4 160.183 172.7 165.083 169.3C169.983 165.8 173.133 162.1 174.533 158.2L178.133 160C175.833 165.5 172.183 170.15 167.183 173.95C162.283 177.65 155.633 179.5 147.233 179.5C133.933 179.5 123.383 175.2 115.583 166.6C107.883 157.9 104.033 147.5 104.033 135.4C104.033 121.4 108.483 110.15 117.383 101.65C126.383 93.05 137.083 88.75 149.483 88.75C152.383 88.75 155.733 89.5 159.533 91C163.333 92.5 165.533 93.25 166.133 93.25C167.333 93.25 167.933 92.25 167.933 90.25H171.383L172.883 109.3H169.583C168.883 104.8 166.883 101.1 163.583 98.2C160.383 95.3 155.733 93.85 149.633 93.85ZM202.829 133C202.829 139.6 203.729 145.95 205.529 152.05C207.429 158.05 210.479 163.3 214.679 167.8C218.979 172.2 224.079 174.4 229.979 174.4C235.879 174.4 240.829 172.3 244.829 168.1C248.929 163.9 251.779 159 253.379 153.4C255.079 147.7 255.929 141.7 255.929 135.4C255.929 128.9 254.979 122.6 253.079 116.5C251.179 110.3 248.079 105 243.779 100.6C239.579 96.1 234.579 93.85 228.779 93.85C224.279 93.85 220.279 95.05 216.779 97.45C213.379 99.85 210.679 103.05 208.679 107.05C206.779 110.95 205.329 115.1 204.329 119.5C203.329 123.9 202.829 128.4 202.829 133ZM187.829 134.2C187.829 121.7 191.729 111 199.529 102.1C207.329 93.2 217.279 88.75 229.379 88.75C241.479 88.75 251.429 93.2 259.229 102.1C267.029 111 270.929 121.7 270.929 134.2C270.929 146.7 266.979 157.4 259.08 166.3C251.279 175.1 241.379 179.5 229.379 179.5C217.179 179.5 207.179 175.1 199.379 166.3C191.679 157.5 187.829 146.8 187.829 134.2ZM282.598 178V174.85C287.998 174.85 291.148 173.85 292.048 171.85V96.4C291.148 94.4 287.998 93.4 282.598 93.4V90.25H343.048V104.8H339.898C339.898 99.4 338.898 96.25 336.898 95.35H305.848V129.85H326.848C328.848 128.95 329.848 125.8 329.848 120.4H332.998V144.4H329.848C329.848 139 328.848 135.85 326.848 134.95H305.848V171.85C306.748 173.85 309.898 174.85 315.298 174.85V178H282.598ZM353.057 178V174.85C358.457 174.85 361.607 173.85 362.507 171.85V96.4C361.607 94.4 358.457 93.4 353.057 93.4V90.25H413.507V104.8H410.357C410.357 99.4 409.357 96.25 407.357 95.35H376.307V129.85H397.307C399.307 128.95 400.307 125.8 400.307 120.4H403.457V144.4H400.307C400.307 139 399.307 135.85 397.307 134.95H376.307V171.85C377.207 173.85 380.357 174.85 385.757 174.85V178H353.057ZM423.516 178V174.85C428.916 174.85 432.066 173.85 432.966 171.85V96.4C432.066 94.4 428.916 93.4 423.516 93.4V90.25H483.966V104.8H480.816C480.816 99.4 479.816 96.25 477.816 95.35H446.766V129.85H467.766C469.766 128.95 470.766 125.8 470.766 120.4H473.916V144.4H470.766C470.766 139 469.766 135.85 467.766 134.95H446.766V172.9H480.966C483.466 171.8 485.716 168.65 487.716 163.45H490.716L487.116 178H423.516ZM499.541 178V174.85C504.941 174.85 508.091 173.85 508.991 171.85V96.4C508.091 94.4 504.941 93.4 499.541 93.4V90.25H559.991V104.8H556.841C556.841 99.4 555.841 96.25 553.841 95.35H522.791V129.85H543.791C545.791 128.95 546.791 125.8 546.791 120.4H549.941V144.4H546.791C546.791 139 545.791 135.85 543.791 134.95H522.791V172.9H556.991C559.491 171.8 561.741 168.65 563.741 163.45H566.741L563.141 178H499.541ZM258.192 260.25V263.4C253.492 263.4 250.592 264 249.492 265.2L265.842 293.85L283.692 265.8C282.692 264.2 279.642 263.4 274.542 263.4V260.25H299.142V263.4C294.242 263.4 291.242 264.25 290.142 265.95L268.842 299.1L293.292 341.7C294.392 343.8 297.592 344.85 302.892 344.85V348H270.042V344.85C274.742 344.85 277.642 344.25 278.742 343.05L260.892 311.7L241.092 342.45C242.092 344.05 245.142 344.85 250.242 344.85V348H225.642V344.85C230.642 344.85 233.842 343.75 235.242 341.55L257.742 306.45L234.942 266.4C233.842 264.4 230.642 263.4 225.342 263.4V260.25H258.192ZM317.052 311.85C317.152 320.25 319.552 327.7 324.252 334.2C329.052 340.6 334.402 343.8 340.302 343.8C349.002 343.8 356.002 340.5 361.302 333.9L364.902 335.7C362.002 340.5 358.202 344 353.502 346.2C348.902 348.4 342.802 349.5 335.202 349.5C331.402 349.5 327.752 348.95 324.252 347.85C320.752 346.65 317.302 344.75 313.902 342.15C310.502 339.45 307.802 335.5 305.802 330.3C303.802 325.1 302.802 318.9 302.802 311.7C302.802 302.9 305.502 295.5 310.902 289.5C316.402 283.5 324.002 280.5 333.702 280.5C344.302 280.5 352.202 283.5 357.402 289.5C362.602 295.4 365.202 302.85 365.202 311.85H317.052ZM317.202 307.2H350.502C349.902 300 348.352 294.5 345.852 290.7C343.452 286.9 339.202 285 333.102 285C329.602 285 326.202 287.05 322.902 291.15C319.702 295.25 317.802 300.6 317.202 307.2ZM408.277 349.5C403.377 349.5 398.377 348.75 393.277 347.25C388.177 345.75 385.527 345 385.327 345C384.727 345 384.027 345.3 383.227 345.9C382.427 346.5 382.027 347.2 382.027 348H378.577V327.15H381.877C382.977 333.15 385.927 337.55 390.727 340.35C395.627 343.05 401.177 344.4 407.377 344.4C412.677 344.4 417.027 343.2 420.427 340.8C423.827 338.4 425.527 334.8 425.527 330C425.527 327.8 425.027 325.8 424.027 324C423.127 322.2 421.677 320.55 419.677 319.05C417.777 317.45 415.927 316.15 414.127 315.15C412.327 314.05 409.977 312.75 407.077 311.25C404.277 309.65 402.127 308.4 400.627 307.5C397.127 305.3 394.527 303.65 392.827 302.55C391.127 301.35 388.927 299.6 386.227 297.3C383.627 295 381.727 292.6 380.527 290.1C379.327 287.6 378.727 284.9 378.727 282C378.727 276.1 381.427 270.75 386.827 265.95C392.227 261.15 398.277 258.75 404.977 258.75C407.877 258.75 411.477 259.5 415.777 261C420.077 262.5 422.527 263.25 423.127 263.25C424.327 263.25 424.927 262.25 424.927 260.25H428.377L429.877 279.3H426.577C425.977 274.9 423.777 271.25 419.977 268.35C416.177 265.35 411.227 263.85 405.127 263.85C400.527 263.85 396.827 265.35 394.027 268.35C391.327 271.25 389.977 274.2 389.977 277.2C389.977 279.1 390.427 280.9 391.327 282.6C392.227 284.2 393.627 285.7 395.527 287.1C397.427 288.5 399.227 289.75 400.927 290.85C402.627 291.85 404.877 293.1 407.677 294.6C410.577 296.1 412.777 297.3 414.277 298.2C418.377 300.7 421.327 302.55 423.127 303.75C424.927 304.95 427.227 306.8 430.027 309.3C432.927 311.8 434.927 314.4 436.027 317.1C437.227 319.7 437.827 322.6 437.827 325.8C437.827 333.2 434.827 339 428.827 343.2C422.827 347.4 415.977 349.5 408.277 349.5Z" fill="black"/>
<path d="M128.183 104.5L131.303 107.004L131.303 107.004L128.183 104.5ZM128.633 163.15L131.757 160.651L131.757 160.651L128.633 163.15ZM165.083 169.3L167.364 172.586L167.386 172.571L167.408 172.555L165.083 169.3ZM174.533 158.2L176.322 154.622L172.291 152.607L170.769 156.849L174.533 158.2ZM178.133 160L181.824 161.543L183.266 158.094L179.922 156.422L178.133 160ZM167.183 173.95L169.594 177.142L169.604 177.135L167.183 173.95ZM115.583 166.6L112.588 169.251L112.604 169.269L112.621 169.287L115.583 166.6ZM117.383 101.65L120.146 104.543L120.147 104.542L117.383 101.65ZM159.533 91L161.002 87.2794L161.002 87.2794L159.533 91ZM167.933 90.25V86.25H163.933V90.25H167.933ZM171.383 90.25L175.371 89.936L175.081 86.25H171.383V90.25ZM172.883 109.3V113.3H177.211L176.871 108.986L172.883 109.3ZM169.583 109.3L165.631 109.915L166.158 113.3H169.583V109.3ZM163.583 98.2L160.897 101.164L160.92 101.184L160.943 101.205L163.583 98.2ZM149.633 89.85C139.741 89.85 131.472 94.0142 125.064 101.996L131.303 107.004C136.295 100.786 142.326 97.85 149.633 97.85V89.85ZM125.064 101.996C118.667 109.964 115.633 120.115 115.633 132.1H123.633C123.633 121.485 126.299 113.236 131.303 107.004L125.064 101.996ZM115.633 132.1C115.633 145.872 118.763 157.215 125.51 165.649L131.757 160.651C126.504 154.085 123.633 144.728 123.633 132.1H115.633ZM125.51 165.649C132.146 173.944 140.434 178.4 150.233 178.4V170.4C143.232 170.4 137.121 167.356 131.757 160.651L125.51 165.649ZM150.233 178.4C156.195 178.4 161.926 176.36 167.364 172.586L162.803 166.014C158.441 169.04 154.271 170.4 150.233 170.4V178.4ZM167.408 172.555C172.684 168.786 176.524 164.493 178.298 159.551L170.769 156.849C169.742 159.707 167.282 162.814 162.758 166.045L167.408 172.555ZM172.745 161.778L176.345 163.578L179.922 156.422L176.322 154.622L172.745 161.778ZM174.443 158.457C172.429 163.272 169.234 167.368 164.763 170.765L169.604 177.135C175.133 172.932 179.237 167.728 181.824 161.543L174.443 158.457ZM164.773 170.758C160.783 173.771 155.079 175.5 147.233 175.5V183.5C156.188 183.5 163.784 181.529 169.594 177.142L164.773 170.758ZM147.233 175.5C134.881 175.5 125.474 171.551 118.546 163.913L112.621 169.287C121.292 178.849 132.986 183.5 147.233 183.5V175.5ZM118.579 163.949C111.555 156.013 108.033 146.568 108.033 135.4H100.033C100.033 148.432 104.212 159.787 112.588 169.251L118.579 163.949ZM108.033 135.4C108.033 122.328 112.148 112.181 120.146 104.543L114.621 98.7573C104.819 108.119 100.033 120.472 100.033 135.4H108.033ZM120.147 104.542C128.406 96.65 138.117 92.75 149.483 92.75V84.75C136.05 84.75 124.361 89.45 114.62 98.758L120.147 104.542ZM149.483 92.75C151.72 92.75 154.556 93.3354 158.065 94.7206L161.002 87.2794C156.911 85.6645 153.046 84.75 149.483 84.75V92.75ZM158.065 94.7206C159.987 95.4793 161.554 96.0685 162.743 96.4735C163.333 96.6749 163.877 96.8469 164.348 96.9732C164.694 97.0658 165.402 97.25 166.133 97.25V89.25C166.565 89.25 166.772 89.3404 166.418 89.2456C166.19 89.1844 165.833 89.0751 165.324 88.9015C164.312 88.5565 162.88 88.0207 161.002 87.2794L158.065 94.7206ZM166.133 97.25C168.089 97.25 169.865 96.305 170.913 94.558C171.766 93.1365 171.933 91.5194 171.933 90.25H163.933C163.933 90.562 163.909 90.726 163.899 90.778C163.887 90.8357 163.907 90.6862 164.053 90.442C164.216 90.1716 164.512 89.8249 164.978 89.5659C165.439 89.3098 165.867 89.25 166.133 89.25V97.25ZM167.933 94.25H171.383V86.25H167.933V94.25ZM167.396 90.564L168.896 109.614L176.871 108.986L175.371 89.936L167.396 90.564ZM172.883 105.3H169.583V113.3H172.883V105.3ZM173.536 108.685C172.698 103.296 170.255 98.7379 166.224 95.1953L160.943 101.205C163.512 103.462 165.069 106.304 165.631 109.915L173.536 108.685ZM166.269 95.2361C162.079 91.4382 156.318 89.85 149.633 89.85V97.85C155.149 97.85 158.688 99.1617 160.897 101.164L166.269 95.2361ZM205.529 152.05L201.693 153.182L201.704 153.22L201.716 153.258L205.529 152.05ZM214.679 167.8L211.755 170.529L211.787 170.563L211.819 170.596L214.679 167.8ZM244.829 168.1L241.967 165.306L241.95 165.324L241.933 165.341L244.829 168.1ZM253.379 153.4L249.546 152.257L249.54 152.279L249.533 152.301L253.379 153.4ZM253.079 116.5L249.255 117.672L249.258 117.681L249.26 117.69L253.079 116.5ZM243.779 100.6L240.855 103.329L240.887 103.363L240.919 103.396L243.779 100.6ZM216.779 97.45L214.517 94.1511L214.495 94.1665L214.473 94.1821L216.779 97.45ZM208.679 107.05L205.102 105.261L205.093 105.28L205.084 105.298L208.679 107.05ZM204.329 119.5L208.23 120.386L208.23 120.386L204.329 119.5ZM199.529 102.1L196.521 99.4636L196.521 99.4636L199.529 102.1ZM259.229 102.1L262.238 99.4636L262.238 99.4636L259.229 102.1ZM259.08 166.3L256.088 163.645L256.086 163.647L259.08 166.3ZM199.379 166.3L196.369 168.934L196.378 168.944L196.386 168.953L199.379 166.3ZM198.829 133C198.829 139.969 199.781 146.701 201.693 153.182L209.366 150.918C207.678 145.199 206.829 139.231 206.829 133H198.829ZM201.716 153.258C203.792 159.811 207.14 165.584 211.755 170.529L217.604 165.071C213.819 161.016 211.067 156.289 209.343 150.842L201.716 153.258ZM211.819 170.596C216.835 175.729 222.952 178.4 229.979 178.4V170.4C225.207 170.4 221.124 168.671 217.54 165.004L211.819 170.596ZM229.979 178.4C236.953 178.4 242.956 175.867 247.726 170.859L241.933 165.341C238.703 168.733 234.806 170.4 229.979 170.4V178.4ZM247.692 170.894C252.251 166.223 255.442 160.742 257.226 154.499L249.533 152.301C248.117 157.258 245.608 161.577 241.967 165.306L247.692 170.894ZM257.213 154.543C259.03 148.451 259.929 142.064 259.929 135.4H251.929C251.929 141.336 251.129 146.949 249.546 152.257L257.213 154.543ZM259.929 135.4C259.929 128.504 258.921 121.802 256.899 115.31L249.26 117.69C251.038 123.398 251.929 129.296 251.929 135.4H259.929ZM256.904 115.328C254.827 108.552 251.411 102.686 246.64 97.8043L240.919 103.396C244.748 107.314 247.532 112.048 249.255 117.672L256.904 115.328ZM246.704 97.8707C241.799 92.6159 235.762 89.85 228.779 89.85V97.85C233.397 97.85 237.36 99.5841 240.855 103.329L246.704 97.8707ZM228.779 89.85C223.523 89.85 218.725 91.2662 214.517 94.1511L219.042 100.749C221.834 98.8338 225.036 97.85 228.779 97.85V89.85ZM214.473 94.1821C210.494 96.9909 207.374 100.716 205.102 105.261L212.257 108.839C213.985 105.384 216.265 102.709 219.086 100.718L214.473 94.1821ZM205.084 105.298C203.044 109.485 201.494 113.926 200.429 118.614L208.23 120.386C209.165 116.274 210.515 112.415 212.275 108.802L205.084 105.298ZM200.429 118.614C199.362 123.31 198.829 128.108 198.829 133H206.829C206.829 128.692 207.297 124.49 208.23 120.386L200.429 118.614ZM191.829 134.2C191.829 122.611 195.415 112.863 202.538 104.736L196.521 99.4636C188.044 109.137 183.829 120.789 183.829 134.2H191.829ZM202.538 104.736C209.559 96.7251 218.402 92.75 229.379 92.75V84.75C216.157 84.75 205.1 89.6749 196.521 99.4636L202.538 104.736ZM229.379 92.75C240.357 92.75 249.2 96.7251 256.221 104.736L262.238 99.4636C253.659 89.6749 242.602 84.75 229.379 84.75V92.75ZM256.221 104.736C263.344 112.863 266.929 122.611 266.929 134.2H274.929C274.929 120.789 270.715 109.137 262.238 99.4636L256.221 104.736ZM266.929 134.2C266.929 145.775 263.303 155.516 256.088 163.645L262.071 168.955C270.656 159.284 274.929 147.625 274.929 134.2H266.929ZM256.086 163.647C249.063 171.57 240.262 175.5 229.379 175.5V183.5C242.497 183.5 253.496 178.63 262.073 168.953L256.086 163.647ZM229.379 175.5C218.275 175.5 209.382 171.554 202.373 163.647L196.386 168.953C204.977 178.646 216.084 183.5 229.379 183.5V175.5ZM202.39 163.666C195.379 155.654 191.829 145.912 191.829 134.2H183.829C183.829 147.687 187.98 159.346 196.369 168.934L202.39 163.666ZM282.598 178H278.598V182H282.598V178ZM282.598 174.85V170.85H278.598V174.85H282.598ZM292.048 171.85L295.696 173.491L296.048 172.709V171.85H292.048ZM292.048 96.4H296.048V95.5415L295.696 94.7585L292.048 96.4ZM282.598 93.4H278.598V97.4H282.598V93.4ZM282.598 90.25V86.25H278.598V90.25H282.598ZM343.048 90.25H347.048V86.25H343.048V90.25ZM343.048 104.8V108.8H347.048V104.8H343.048ZM339.898 104.8H335.898V108.8H339.898V104.8ZM336.898 95.35L338.539 91.7023L337.756 91.35H336.898V95.35ZM305.848 95.35V91.35H301.848V95.35H305.848ZM305.848 129.85H301.848V133.85H305.848V129.85ZM326.848 129.85V133.85H327.706L328.489 133.498L326.848 129.85ZM329.848 120.4V116.4H325.848V120.4H329.848ZM332.998 120.4H336.998V116.4H332.998V120.4ZM332.998 144.4V148.4H336.998V144.4H332.998ZM329.848 144.4H325.848V148.4H329.848V144.4ZM326.848 134.95L328.489 131.302L327.706 130.95H326.848V134.95ZM305.848 134.95V130.95H301.848V134.95H305.848ZM305.848 171.85H301.848V172.709L302.2 173.491L305.848 171.85ZM315.298 174.85H319.298V170.85H315.298V174.85ZM315.298 178V182H319.298V178H315.298ZM286.598 178V174.85H278.598V178H286.598ZM282.598 178.85C285.483 178.85 288.086 178.59 290.221 177.912C292.328 177.243 294.585 175.96 295.696 173.491L288.4 170.209C288.611 169.74 288.843 169.957 287.8 170.288C286.785 170.61 285.112 170.85 282.598 170.85V178.85ZM296.048 171.85V96.4H288.048V171.85H296.048ZM295.696 94.7585C294.585 92.2901 292.328 91.0066 290.221 90.3375C288.086 89.6597 285.483 89.4 282.598 89.4V97.4C285.112 97.4 286.785 97.6403 287.8 97.9625C288.843 98.2934 288.611 98.5099 288.4 98.0415L295.696 94.7585ZM286.598 93.4V90.25H278.598V93.4H286.598ZM282.598 94.25H343.048V86.25H282.598V94.25ZM339.048 90.25V104.8H347.048V90.25H339.048ZM343.048 100.8H339.898V108.8H343.048V100.8ZM343.898 104.8C343.898 101.915 343.638 99.3122 342.96 97.1772C342.291 95.0696 341.008 92.8131 338.539 91.7023L335.256 98.9977C334.788 98.7869 335.004 98.5553 335.335 99.5978C335.658 100.613 335.898 102.285 335.898 104.8H343.898ZM336.898 91.35H305.848V99.35H336.898V91.35ZM301.848 95.35V129.85H309.848V95.35H301.848ZM305.848 133.85H326.848V125.85H305.848V133.85ZM328.489 133.498C330.958 132.387 332.241 130.13 332.91 128.023C333.588 125.888 333.848 123.285 333.848 120.4H325.848C325.848 122.915 325.608 124.587 325.285 125.602C324.954 126.645 324.738 126.413 325.206 126.202L328.489 133.498ZM329.848 124.4H332.998V116.4H329.848V124.4ZM328.998 120.4V144.4H336.998V120.4H328.998ZM332.998 140.4H329.848V148.4H332.998V140.4ZM333.848 144.4C333.848 141.515 333.588 138.912 332.91 136.777C332.241 134.67 330.958 132.413 328.489 131.302L325.206 138.598C324.738 138.387 324.954 138.155 325.285 139.198C325.608 140.213 325.848 141.885 325.848 144.4H333.848ZM326.848 130.95H305.848V138.95H326.848V130.95ZM301.848 134.95V171.85H309.848V134.95H301.848ZM302.2 173.491C303.311 175.96 305.568 177.243 307.675 177.912C309.81 178.59 312.412 178.85 315.298 178.85V170.85C312.783 170.85 311.111 170.61 310.096 170.288C309.053 169.957 309.285 169.74 309.496 170.209L302.2 173.491ZM311.298 174.85V178H319.298V174.85H311.298ZM315.298 174H282.598V182H315.298V174ZM353.057 178H349.057V182H353.057V178ZM353.057 174.85V170.85H349.057V174.85H353.057ZM362.507 171.85L366.155 173.491L366.507 172.709V171.85H362.507ZM362.507 96.4H366.507V95.5415L366.155 94.7585L362.507 96.4ZM353.057 93.4H349.057V97.4H353.057V93.4ZM353.057 90.25V86.25H349.057V90.25H353.057ZM413.507 90.25H417.507V86.25H413.507V90.25ZM413.507 104.8V108.8H417.507V104.8H413.507ZM410.357 104.8H406.357V108.8H410.357V104.8ZM407.357 95.35L408.998 91.7023L408.215 91.35H407.357V95.35ZM376.307 95.35V91.35H372.307V95.35H376.307ZM376.307 129.85H372.307V133.85H376.307V129.85ZM397.307 129.85V133.85H398.165L398.948 133.498L397.307 129.85ZM400.307 120.4V116.4H396.307V120.4H400.307ZM403.457 120.4H407.457V116.4H403.457V120.4ZM403.457 144.4V148.4H407.457V144.4H403.457ZM400.307 144.4H396.307V148.4H400.307V144.4ZM397.307 134.95L398.948 131.302L398.165 130.95H397.307V134.95ZM376.307 134.95V130.95H372.307V134.95H376.307ZM376.307 171.85H372.307V172.709L372.659 173.491L376.307 171.85ZM385.757 174.85H389.757V170.85H385.757V174.85ZM385.757 178V182H389.757V178H385.757ZM357.057 178V174.85H349.057V178H357.057ZM353.057 178.85C355.942 178.85 358.545 178.59 360.68 177.912C362.787 177.243 365.044 175.96 366.155 173.491L358.859 170.209C359.07 169.74 359.301 169.957 358.259 170.288C357.244 170.61 355.571 170.85 353.057 170.85V178.85ZM366.507 171.85V96.4H358.507V171.85H366.507ZM366.155 94.7585C365.044 92.2901 362.787 91.0066 360.68 90.3375C358.545 89.6597 355.942 89.4 353.057 89.4V97.4C355.571 97.4 357.244 97.6403 358.259 97.9625C359.301 98.2934 359.07 98.5099 358.859 98.0415L366.155 94.7585ZM357.057 93.4V90.25H349.057V93.4H357.057ZM353.057 94.25H413.507V86.25H353.057V94.25ZM409.507 90.25V104.8H417.507V90.25H409.507ZM413.507 100.8H410.357V108.8H413.507V100.8ZM414.357 104.8C414.357 101.915 414.097 99.3122 413.419 97.1772C412.75 95.0696 411.467 92.8131 408.998 91.7023L405.715 98.9977C405.247 98.7869 405.463 98.5553 405.794 99.5978C406.117 100.613 406.357 102.285 406.357 104.8H414.357ZM407.357 91.35H376.307V99.35H407.357V91.35ZM372.307 95.35V129.85H380.307V95.35H372.307ZM376.307 133.85H397.307V125.85H376.307V133.85ZM398.948 133.498C401.417 132.387 402.7 130.13 403.369 128.023C404.047 125.888 404.307 123.285 404.307 120.4H396.307C396.307 122.915 396.067 124.587 395.744 125.602C395.413 126.645 395.197 126.413 395.665 126.202L398.948 133.498ZM400.307 124.4H403.457V116.4H400.307V124.4ZM399.457 120.4V144.4H407.457V120.4H399.457ZM403.457 140.4H400.307V148.4H403.457V140.4ZM404.307 144.4C404.307 141.515 404.047 138.912 403.369 136.777C402.7 134.67 401.417 132.413 398.948 131.302L395.665 138.598C395.197 138.387 395.413 138.155 395.744 139.198C396.067 140.213 396.307 141.885 396.307 144.4H404.307ZM397.307 130.95H376.307V138.95H397.307V130.95ZM372.307 134.95V171.85H380.307V134.95H372.307ZM372.659 173.491C373.77 175.96 376.026 177.243 378.134 177.912C380.269 178.59 382.871 178.85 385.757 178.85V170.85C383.242 170.85 381.57 170.61 380.555 170.288C379.512 169.957 379.744 169.74 379.955 170.209L372.659 173.491ZM381.757 174.85V178H389.757V174.85H381.757ZM385.757 174H353.057V182H385.757V174ZM423.516 178H419.516V182H423.516V178ZM423.516 174.85V170.85H419.516V174.85H423.516ZM432.966 171.85L436.614 173.491L436.966 172.709V171.85H432.966ZM432.966 96.4H436.966V95.5415L436.614 94.7585L432.966 96.4ZM423.516 93.4H419.516V97.4H423.516V93.4ZM423.516 90.25V86.25H419.516V90.25H423.516ZM483.966 90.25H487.966V86.25H483.966V90.25ZM483.966 104.8V108.8H487.966V104.8H483.966ZM480.816 104.8H476.816V108.8H480.816V104.8ZM477.816 95.35L479.457 91.7023L478.674 91.35H477.816V95.35ZM446.766 95.35V91.35H442.766V95.35H446.766ZM446.766 129.85H442.766V133.85H446.766V129.85ZM467.766 129.85V133.85H468.624L469.407 133.498L467.766 129.85ZM470.766 120.4V116.4H466.766V120.4H470.766ZM473.916 120.4H477.916V116.4H473.916V120.4ZM473.916 144.4V148.4H477.916V144.4H473.916ZM470.766 144.4H466.766V148.4H470.766V144.4ZM467.766 134.95L469.407 131.302L468.624 130.95H467.766V134.95ZM446.766 134.95V130.95H442.766V134.95H446.766ZM446.766 172.9H442.766V176.9H446.766V172.9ZM480.966 172.9V176.9H481.807L482.577 176.561L480.966 172.9ZM487.716 163.45V159.45H484.969L483.982 162.014L487.716 163.45ZM490.716 163.45L494.599 164.411L495.826 159.45H490.716V163.45ZM487.116 178V182H490.247L490.999 178.961L487.116 178ZM427.516 178V174.85H419.516V178H427.516ZM423.516 178.85C426.401 178.85 429.004 178.59 431.139 177.912C433.246 177.243 435.503 175.96 436.614 173.491L429.318 170.209C429.529 169.74 429.76 169.957 428.718 170.288C427.703 170.61 426.03 170.85 423.516 170.85V178.85ZM436.966 171.85V96.4H428.966V171.85H436.966ZM436.614 94.7585C435.503 92.2901 433.246 91.0066 431.139 90.3375C429.004 89.6597 426.401 89.4 423.516 89.4V97.4C426.03 97.4 427.703 97.6403 428.718 97.9625C429.76 98.2934 429.529 98.5099 429.318 98.0415L436.614 94.7585ZM427.516 93.4V90.25H419.516V93.4H427.516ZM423.516 94.25H483.966V86.25H423.516V94.25ZM479.966 90.25V104.8H487.966V90.25H479.966ZM483.966 100.8H480.816V108.8H483.966V100.8ZM484.816 104.8C484.816 101.915 484.556 99.3122 483.878 97.1772C483.209 95.0696 481.926 92.8131 479.457 91.7023L476.174 98.9977C475.706 98.7869 475.922 98.5553 476.253 99.5978C476.576 100.613 476.816 102.285 476.816 104.8H484.816ZM477.816 91.35H446.766V99.35H477.816V91.35ZM442.766 95.35V129.85H450.766V95.35H442.766ZM446.766 133.85H467.766V125.85H446.766V133.85ZM469.407 133.498C471.876 132.387 473.159 130.13 473.828 128.023C474.506 125.888 474.766 123.285 474.766 120.4H466.766C466.766 122.915 466.526 124.587 466.203 125.602C465.872 126.645 465.656 126.413 466.124 126.202L469.407 133.498ZM470.766 124.4H473.916V116.4H470.766V124.4ZM469.916 120.4V144.4H477.916V120.4H469.916ZM473.916 140.4H470.766V148.4H473.916V140.4ZM474.766 144.4C474.766 141.515 474.506 138.912 473.828 136.777C473.159 134.67 471.876 132.413 469.407 131.302L466.124 138.598C465.656 138.387 465.872 138.155 466.203 139.198C466.526 140.213 466.766 141.885 466.766 144.4H474.766ZM467.766 130.95H446.766V138.95H467.766V130.95ZM442.766 134.95V172.9H450.766V134.95H442.766ZM446.766 176.9H480.966V168.9H446.766V176.9ZM482.577 176.561C486.671 174.76 489.409 170.191 491.449 164.886L483.982 162.014C482.023 167.109 480.26 168.84 479.355 169.239L482.577 176.561ZM487.716 167.45H490.716V159.45H487.716V167.45ZM486.833 162.489L483.233 177.039L490.999 178.961L494.599 164.411L486.833 162.489ZM487.116 174H423.516V182H487.116V174ZM499.541 178H495.541V182H499.541V178ZM499.541 174.85V170.85H495.541V174.85H499.541ZM508.991 171.85L512.639 173.491L512.991 172.709V171.85H508.991ZM508.991 96.4H512.991V95.5415L512.639 94.7585L508.991 96.4ZM499.541 93.4H495.541V97.4H499.541V93.4ZM499.541 90.25V86.25H495.541V90.25H499.541ZM559.991 90.25H563.991V86.25H559.991V90.25ZM559.991 104.8V108.8H563.991V104.8H559.991ZM556.841 104.8H552.841V108.8H556.841V104.8ZM553.841 95.35L555.483 91.7023L554.7 91.35H553.841V95.35ZM522.791 95.35V91.35H518.791V95.35H522.791ZM522.791 129.85H518.791V133.85H522.791V129.85ZM543.791 129.85V133.85H544.65L545.433 133.498L543.791 129.85ZM546.791 120.4V116.4H542.791V120.4H546.791ZM549.941 120.4H553.941V116.4H549.941V120.4ZM549.941 144.4V148.4H553.941V144.4H549.941ZM546.791 144.4H542.791V148.4H546.791V144.4ZM543.791 134.95L545.433 131.302L544.65 130.95H543.791V134.95ZM522.791 134.95V130.95H518.791V134.95H522.791ZM522.791 172.9H518.791V176.9H522.791V172.9ZM556.991 172.9V176.9H557.832L558.602 176.561L556.991 172.9ZM563.741 163.45V159.45H560.994L560.008 162.014L563.741 163.45ZM566.741 163.45L570.624 164.411L571.852 159.45H566.741V163.45ZM563.141 178V182H566.272L567.024 178.961L563.141 178ZM503.541 178V174.85H495.541V178H503.541ZM499.541 178.85C502.427 178.85 505.029 178.59 507.164 177.912C509.272 177.243 511.528 175.96 512.639 173.491L505.344 170.209C505.554 169.74 505.786 169.957 504.743 170.288C503.728 170.61 502.056 170.85 499.541 170.85V178.85ZM512.991 171.85V96.4H504.991V171.85H512.991ZM512.639 94.7585C511.528 92.2901 509.272 91.0066 507.164 90.3375C505.029 89.6597 502.427 89.4 499.541 89.4V97.4C502.056 97.4 503.728 97.6403 504.743 97.9625C505.786 98.2934 505.554 98.5099 505.344 98.0415L512.639 94.7585ZM503.541 93.4V90.25H495.541V93.4H503.541ZM499.541 94.25H559.991V86.25H499.541V94.25ZM555.991 90.25V104.8H563.991V90.25H555.991ZM559.991 100.8H556.841V108.8H559.991V100.8ZM560.841 104.8C560.841 101.915 560.581 99.3122 559.904 97.1772C559.235 95.0696 557.951 92.8131 555.483 91.7023L552.2 98.9977C551.731 98.7869 551.948 98.5553 552.279 99.5978C552.601 100.613 552.841 102.285 552.841 104.8H560.841ZM553.841 91.35H522.791V99.35H553.841V91.35ZM518.791 95.35V129.85H526.791V95.35H518.791ZM522.791 133.85H543.791V125.85H522.791V133.85ZM545.433 133.498C547.901 132.387 549.185 130.13 549.854 128.023C550.531 125.888 550.791 123.285 550.791 120.4H542.791C542.791 122.915 542.551 124.587 542.229 125.602C541.898 126.645 541.681 126.413 542.15 126.202L545.433 133.498ZM546.791 124.4H549.941V116.4H546.791V124.4ZM545.941 120.4V144.4H553.941V120.4H545.941ZM549.941 140.4H546.791V148.4H549.941V140.4ZM550.791 144.4C550.791 141.515 550.531 138.912 549.854 136.777C549.185 134.67 547.901 132.413 545.433 131.302L542.15 138.598C541.681 138.387 541.898 138.155 542.229 139.198C542.551 140.213 542.791 141.885 542.791 144.4H550.791ZM543.791 130.95H522.791V138.95H543.791V130.95ZM518.791 134.95V172.9H526.791V134.95H518.791ZM522.791 176.9H556.991V168.9H522.791V176.9ZM558.602 176.561C562.697 174.76 565.434 170.191 567.475 164.886L560.008 162.014C558.048 167.109 556.286 168.84 555.38 169.239L558.602 176.561ZM563.741 167.45H566.741V159.45H563.741V167.45ZM562.858 162.489L559.258 177.039L567.024 178.961L570.624 164.411L562.858 162.489ZM563.141 174H499.541V182H563.141V174ZM258.192 260.25H262.192V256.25H258.192V260.25ZM258.192 263.4V267.4H262.192V263.4H258.192ZM249.492 265.2L246.544 262.497L244.572 264.648L246.018 267.183L249.492 265.2ZM265.842 293.85L262.368 295.833L265.656 301.594L269.217 295.997L265.842 293.85ZM283.692 265.8L287.067 267.947L288.421 265.819L287.084 263.68L283.692 265.8ZM274.542 263.4H270.542V267.4H274.542V263.4ZM274.542 260.25V256.25H270.542V260.25H274.542ZM299.142 260.25H303.142V256.25H299.142V260.25ZM299.142 263.4V267.4H303.142V263.4H299.142ZM290.142 265.95L286.784 263.777L286.777 263.788L290.142 265.95ZM268.842 299.1L265.477 296.938L264.163 298.983L265.373 301.091L268.842 299.1ZM293.292 341.7L296.836 339.844L296.8 339.776L296.762 339.709L293.292 341.7ZM302.892 344.85H306.892V340.85H302.892V344.85ZM302.892 348V352H306.892V348H302.892ZM270.042 348H266.042V352H270.042V348ZM270.042 344.85V340.85H266.042V344.85H270.042ZM278.742 343.05L281.691 345.753L283.661 343.604L282.218 341.071L278.742 343.05ZM260.892 311.7L264.368 309.721L261.103 303.985L257.529 309.534L260.892 311.7ZM241.092 342.45L237.729 340.284L236.355 342.418L237.7 344.57L241.092 342.45ZM250.242 344.85H254.242V340.85H250.242V344.85ZM250.242 348V352H254.242V348H250.242ZM225.642 348H221.642V352H225.642V348ZM225.642 344.85V340.85H221.642V344.85H225.642ZM235.242 341.55L231.875 339.391L231.868 339.402L235.242 341.55ZM257.742 306.45L261.11 308.609L262.415 306.573L261.219 304.471L257.742 306.45ZM234.942 266.4L231.438 268.328L231.452 268.353L231.466 268.379L234.942 266.4ZM225.342 263.4H221.342V267.4H225.342V263.4ZM225.342 260.25V256.25H221.342V260.25H225.342ZM254.192 260.25V263.4H262.192V260.25H254.192ZM258.192 259.4C255.709 259.4 253.507 259.555 251.682 259.933C249.997 260.282 247.964 260.948 246.544 262.497L252.441 267.903C252.121 268.252 252.088 268.018 253.303 267.767C254.378 267.545 255.976 267.4 258.192 267.4V259.4ZM246.018 267.183L262.368 295.833L269.316 291.867L252.966 263.217L246.018 267.183ZM269.217 295.997L287.067 267.947L280.318 263.652L262.468 291.702L269.217 295.997ZM287.084 263.68C285.78 261.593 283.561 260.627 281.67 260.131C279.674 259.607 277.252 259.4 274.542 259.4V267.4C276.933 267.4 278.586 267.593 279.64 267.869C280.799 268.173 280.605 268.407 280.3 267.92L287.084 263.68ZM278.542 263.4V260.25H270.542V263.4H278.542ZM274.542 264.25H299.142V256.25H274.542V264.25ZM295.142 260.25V263.4H303.142V260.25H295.142ZM299.142 259.4C296.508 259.4 294.124 259.623 292.127 260.189C290.177 260.742 288.082 261.77 286.784 263.777L293.501 268.123C293.302 268.43 293.258 268.183 294.308 267.886C295.311 267.602 296.876 267.4 299.142 267.4V259.4ZM286.777 263.788L265.477 296.938L272.208 301.262L293.508 268.112L286.777 263.788ZM265.373 301.091L289.823 343.691L296.762 339.709L272.312 297.109L265.373 301.091ZM289.749 343.556C290.954 345.856 293.099 347.151 295.27 347.863C297.435 348.573 300.033 348.85 302.892 348.85V340.85C300.452 340.85 298.8 340.602 297.764 340.262C296.736 339.924 296.731 339.644 296.836 339.844L289.749 343.556ZM298.892 344.85V348H306.892V344.85H298.892ZM302.892 344H270.042V352H302.892V344ZM274.042 348V344.85H266.042V348H274.042ZM270.042 348.85C272.526 348.85 274.728 348.695 276.553 348.317C278.238 347.968 280.271 347.302 281.691 345.753L275.794 340.347C276.114 339.998 276.147 340.232 274.932 340.483C273.857 340.705 272.259 340.85 270.042 340.85V348.85ZM282.218 341.071L264.368 309.721L257.416 313.679L275.266 345.029L282.218 341.071ZM257.529 309.534L237.729 340.284L244.455 344.616L264.255 313.866L257.529 309.534ZM237.7 344.57C239.005 346.657 241.223 347.623 243.115 348.119C245.111 348.643 247.533 348.85 250.242 348.85V340.85C247.852 340.85 246.199 340.657 245.145 340.381C243.986 340.077 244.18 339.843 244.484 340.33L237.7 344.57ZM246.242 344.85V348H254.242V344.85H246.242ZM250.242 344H225.642V352H250.242V344ZM229.642 348V344.85H221.642V348H229.642ZM225.642 348.85C230.814 348.85 236.014 347.788 238.617 343.698L231.868 339.402C231.671 339.712 230.471 340.85 225.642 340.85V348.85ZM238.61 343.709L261.11 308.609L254.375 304.291L231.875 339.391L238.61 343.709ZM261.219 304.471L238.419 264.421L231.466 268.379L254.266 308.429L261.219 304.471ZM238.447 264.472C237.209 262.22 235.039 260.997 232.91 260.332C230.767 259.662 228.191 259.4 225.342 259.4V267.4C227.794 267.4 229.467 267.638 230.524 267.968C231.596 268.303 231.576 268.58 231.438 268.328L238.447 264.472ZM229.342 263.4V260.25H221.342V263.4H229.342ZM225.342 264.25H258.192V256.25H225.342V264.25ZM317.052 311.85V307.85H313.004L313.052 311.898L317.052 311.85ZM324.252 334.2L321.011 336.544L321.031 336.572L321.052 336.6L324.252 334.2ZM361.302 333.9L363.091 330.322L360.204 328.879L358.183 331.395L361.302 333.9ZM364.902 335.7L368.326 337.768L370.566 334.06L366.691 332.122L364.902 335.7ZM353.502 346.2L351.806 342.577L351.791 342.584L351.776 342.591L353.502 346.2ZM324.252 347.85L322.955 351.634L323.004 351.651L323.053 351.666L324.252 347.85ZM313.902 342.15L311.415 345.282L311.443 345.305L311.472 345.327L313.902 342.15ZM305.802 330.3L309.536 328.864L309.536 328.864L305.802 330.3ZM310.902 289.5L307.954 286.797L307.941 286.811L307.929 286.824L310.902 289.5ZM357.402 289.5L354.379 292.12L354.39 292.132L354.401 292.145L357.402 289.5ZM365.202 311.85V315.85H369.202V311.85H365.202ZM317.202 307.2L313.219 306.838L312.822 311.2H317.202V307.2ZM350.502 307.2V311.2H354.849L354.488 306.868L350.502 307.2ZM345.852 290.7L342.47 292.836L342.49 292.867L342.51 292.898L345.852 290.7ZM322.902 291.15L319.786 288.642L319.767 288.665L319.749 288.689L322.902 291.15ZM313.052 311.898C313.162 321.081 315.803 329.342 321.011 336.544L327.494 331.856C323.301 326.058 321.143 319.419 321.052 311.802L313.052 311.898ZM321.052 336.6C326.318 343.621 332.728 347.8 340.302 347.8V339.8C336.076 339.8 331.787 337.579 327.452 331.8L321.052 336.6ZM340.302 347.8C350.176 347.8 358.338 343.98 364.421 336.405L358.183 331.395C353.667 337.02 347.829 339.8 340.302 339.8V347.8ZM359.513 337.478L363.113 339.278L366.691 332.122L363.091 330.322L359.513 337.478ZM361.478 333.632C358.953 337.811 355.731 340.74 351.806 342.577L355.198 349.823C360.673 347.26 365.051 343.189 368.326 337.768L361.478 333.632ZM351.776 342.591C347.914 344.439 342.473 345.5 335.202 345.5V353.5C343.131 353.5 349.891 352.361 355.228 349.809L351.776 342.591ZM335.202 345.5C331.794 345.5 328.55 345.008 325.451 344.034L323.053 351.666C326.955 352.892 331.01 353.5 335.202 353.5V345.5ZM325.549 344.066C322.515 343.026 319.442 341.351 316.332 338.973L311.472 345.327C315.162 348.149 318.989 350.274 322.955 351.634L325.549 344.066ZM316.39 339.018C313.686 336.871 311.35 333.583 309.536 328.864L302.069 331.736C304.254 337.417 307.318 342.029 311.415 345.282L316.39 339.018ZM309.536 328.864C307.755 324.235 306.802 318.546 306.802 311.7H298.802C298.802 319.254 299.849 325.965 302.069 331.736L309.536 328.864ZM306.802 311.7C306.802 303.792 309.198 297.373 313.875 292.176L307.929 286.824C301.806 293.627 298.802 302.008 298.802 311.7H306.802ZM313.851 292.203C318.448 287.187 324.89 284.5 333.702 284.5V276.5C323.115 276.5 314.356 279.813 307.954 286.797L313.851 292.203ZM333.702 284.5C343.553 284.5 350.172 287.265 354.379 292.12L360.425 286.88C354.232 279.735 345.051 276.5 333.702 276.5V284.5ZM354.401 292.145C358.865 297.209 361.202 303.674 361.202 311.85H369.202C369.202 302.026 366.34 293.591 360.403 286.855L354.401 292.145ZM365.202 307.85H317.052V315.85H365.202V307.85ZM317.202 311.2H350.502V303.2H317.202V311.2ZM354.488 306.868C353.862 299.355 352.216 293.096 349.194 288.502L342.51 292.898C344.488 295.904 345.942 300.645 346.516 307.532L354.488 306.868ZM349.234 288.564C345.851 283.207 340.029 281 333.102 281V289C338.375 289 341.053 290.593 342.47 292.836L349.234 288.564ZM333.102 281C327.881 281 323.454 284.085 319.786 288.642L326.018 293.658C328.95 290.015 331.323 289 333.102 289V281ZM319.749 288.689C315.962 293.54 313.869 299.681 313.219 306.838L321.186 307.562C321.735 301.519 323.442 296.96 326.055 293.611L319.749 288.689ZM383.227 345.9L385.627 349.1L385.627 349.1L383.227 345.9ZM382.027 348V352H386.027V348H382.027ZM378.577 348H374.577V352H378.577V348ZM378.577 327.15V323.15H374.577V327.15H378.577ZM381.877 327.15L385.811 326.429L385.21 323.15H381.877V327.15ZM390.727 340.35L388.711 343.805L388.754 343.83L388.796 343.853L390.727 340.35ZM420.427 340.8L422.733 344.068L422.733 344.068L420.427 340.8ZM424.027 324L420.449 325.789L420.488 325.867L420.53 325.943L424.027 324ZM419.677 319.05L417.1 322.11L417.187 322.182L417.277 322.25L419.677 319.05ZM414.127 315.15L412.041 318.563L412.112 318.606L412.184 318.647L414.127 315.15ZM407.077 311.25L405.092 314.723L405.165 314.764L405.239 314.803L407.077 311.25ZM400.627 307.5L398.498 310.887L398.533 310.909L398.569 310.93L400.627 307.5ZM392.827 302.55L390.52 305.818L390.586 305.864L390.654 305.908L392.827 302.55ZM386.227 297.3L383.576 300.296L383.604 300.321L383.633 300.345L386.227 297.3ZM380.527 290.1L376.921 291.831L376.921 291.831L380.527 290.1ZM386.827 265.95L384.169 262.96L384.169 262.96L386.827 265.95ZM415.777 261L417.094 257.223L417.094 257.223L415.777 261ZM424.927 260.25V256.25H420.927V260.25H424.927ZM428.377 260.25L432.364 259.936L432.074 256.25H428.377V260.25ZM429.877 279.3V283.3H434.204L433.864 278.986L429.877 279.3ZM426.577 279.3L422.613 279.84L423.085 283.3H426.577V279.3ZM419.977 268.35L417.498 271.49L417.524 271.51L417.55 271.53L419.977 268.35ZM394.027 268.35L391.103 265.621L391.099 265.624L394.027 268.35ZM391.327 282.6L387.792 284.472L387.815 284.517L387.84 284.561L391.327 282.6ZM395.527 287.1L393.154 290.32L393.154 290.32L395.527 287.1ZM400.927 290.85L398.754 294.208L398.825 294.255L398.899 294.298L400.927 290.85ZM407.677 294.6L405.788 298.126L405.813 298.14L405.839 298.153L407.677 294.6ZM414.277 298.2L416.359 294.785L416.347 294.777L416.335 294.77L414.277 298.2ZM430.027 309.3L427.363 312.284L427.389 312.307L427.415 312.33L430.027 309.3ZM436.027 317.1L432.322 318.609L432.357 318.694L432.395 318.776L436.027 317.1ZM428.827 343.2L426.533 339.923L426.533 339.923L428.827 343.2ZM408.277 345.5C403.79 345.5 399.17 344.814 394.405 343.413L392.148 351.087C397.584 352.686 402.964 353.5 408.277 353.5V345.5ZM394.405 343.413C391.852 342.662 389.899 342.094 388.554 341.714C387.884 341.524 387.346 341.376 386.954 341.272C386.761 341.222 386.576 341.175 386.416 341.138C386.339 341.12 386.234 341.097 386.121 341.076C386.109 341.073 385.752 341 385.327 341V349C385.072 349 384.878 348.974 384.826 348.967C384.747 348.957 384.689 348.946 384.665 348.942C384.615 348.933 384.593 348.927 384.617 348.933C384.66 348.943 384.755 348.966 384.918 349.009C385.238 349.093 385.72 349.226 386.375 349.411C387.68 349.781 389.602 350.338 392.148 351.087L394.405 343.413ZM385.327 341C383.453 341 381.899 341.896 380.827 342.7L385.627 349.1C385.732 349.021 385.812 348.969 385.866 348.936C385.921 348.903 385.941 348.896 385.927 348.902C385.909 348.91 385.693 349 385.327 349V341ZM380.827 342.7C379.299 343.846 378.027 345.629 378.027 348H386.027C386.027 348.302 385.942 348.61 385.8 348.86C385.672 349.083 385.562 349.149 385.627 349.1L380.827 342.7ZM382.027 344H378.577V352H382.027V344ZM382.577 348V327.15H374.577V348H382.577ZM378.577 331.15H381.877V323.15H378.577V331.15ZM377.942 327.871C379.23 334.892 382.798 340.355 388.711 343.805L392.742 336.895C389.056 334.745 386.724 331.408 385.811 326.429L377.942 327.871ZM388.796 343.853C394.35 346.913 400.576 348.4 407.377 348.4V340.4C401.777 340.4 396.904 339.187 392.657 336.847L388.796 343.853ZM407.377 348.4C413.276 348.4 418.495 347.06 422.733 344.068L418.12 337.532C415.559 339.34 412.077 340.4 407.377 340.4V348.4ZM422.733 344.068C427.37 340.795 429.527 335.87 429.527 330H421.527C421.527 333.73 420.284 336.005 418.12 337.532L422.733 344.068ZM429.527 330C429.527 327.168 428.876 324.492 427.523 322.057L420.53 325.943C421.177 327.108 421.527 328.432 421.527 330H429.527ZM427.604 322.211C426.368 319.738 424.456 317.634 422.077 315.85L417.277 322.25C418.898 323.466 419.886 324.662 420.449 325.789L427.604 322.211ZM422.253 315.99C420.195 314.257 418.135 312.801 416.069 311.653L412.184 318.647C413.719 319.499 415.358 320.643 417.1 322.11L422.253 315.99ZM416.213 311.737C414.3 310.568 411.859 309.22 408.914 307.697L405.239 314.803C408.095 316.28 410.353 317.532 412.041 318.563L416.213 311.737ZM409.061 307.777C406.269 306.182 404.148 304.948 402.685 304.07L398.569 310.93C400.105 311.852 402.284 313.118 405.092 314.723L409.061 307.777ZM402.755 304.113C399.258 301.915 396.677 300.277 395 299.192L390.654 305.908C392.377 307.023 394.995 308.685 398.498 310.887L402.755 304.113ZM395.133 299.282C393.577 298.184 391.483 296.523 388.821 294.255L383.633 300.345C386.371 302.677 388.676 304.516 390.52 305.818L395.133 299.282ZM388.877 294.304C386.58 292.272 385.052 290.283 384.133 288.369L376.921 291.831C378.402 294.917 380.674 297.728 383.576 300.296L388.877 294.304ZM384.133 288.369C383.204 286.434 382.727 284.329 382.727 282H374.727C374.727 285.471 375.449 288.766 376.921 291.831L384.133 288.369ZM382.727 282C382.727 277.494 384.73 273.165 389.484 268.94L384.169 262.96C378.123 268.335 374.727 274.706 374.727 282H382.727ZM389.484 268.94C394.214 264.735 399.337 262.75 404.977 262.75V254.75C397.217 254.75 390.239 257.565 384.169 262.96L389.484 268.94ZM404.977 262.75C407.248 262.75 410.37 263.35 414.459 264.777L417.094 257.223C412.584 255.65 408.506 254.75 404.977 254.75V262.75ZM414.459 264.777C416.627 265.533 418.371 266.115 419.668 266.512C420.314 266.71 420.89 266.875 421.375 266.994C421.723 267.079 422.429 267.25 423.127 267.25V259.25C423.524 259.25 423.699 259.327 423.285 259.225C423.007 259.157 422.59 259.04 422.01 258.863C420.858 258.51 419.227 257.967 417.094 257.223L414.459 264.777ZM423.127 267.25C425.082 267.25 426.859 266.305 427.907 264.558C428.76 263.136 428.927 261.519 428.927 260.25H420.927C420.927 260.562 420.902 260.726 420.892 260.778C420.88 260.836 420.9 260.686 421.047 260.442C421.209 260.172 421.505 259.825 421.972 259.566C422.433 259.31 422.86 259.25 423.127 259.25V267.25ZM424.927 264.25H428.377V256.25H424.927V264.25ZM424.389 260.564L425.889 279.614L433.864 278.986L432.364 259.936L424.389 260.564ZM429.877 275.3H426.577V283.3H429.877V275.3ZM430.54 278.76C429.785 273.226 426.974 268.658 422.403 265.17L417.55 271.53C420.58 273.842 422.168 276.574 422.613 279.84L430.54 278.76ZM422.455 265.21C417.783 261.522 411.888 259.85 405.127 259.85V267.85C410.566 267.85 414.571 269.178 417.498 271.49L422.455 265.21ZM405.127 259.85C399.566 259.85 394.755 261.708 391.103 265.621L396.951 271.079C398.899 268.992 401.487 267.85 405.127 267.85V259.85ZM391.099 265.624C387.937 269.021 385.977 272.899 385.977 277.2H393.977C393.977 275.501 394.717 273.479 396.954 271.076L391.099 265.624ZM385.977 277.2C385.977 279.761 386.59 282.202 387.792 284.472L394.862 280.728C394.263 279.598 393.977 278.439 393.977 277.2H385.977ZM387.84 284.561C389.086 286.775 390.923 288.676 393.154 290.32L397.9 283.88C396.33 282.724 395.368 281.625 394.813 280.639L387.84 284.561ZM393.154 290.32C395.109 291.761 396.976 293.058 398.754 294.208L403.1 287.492C401.478 286.442 399.745 285.239 397.9 283.88L393.154 290.32ZM398.899 294.298C400.664 295.336 402.965 296.614 405.788 298.126L409.566 291.074C406.788 289.586 404.59 288.364 402.955 287.402L398.899 294.298ZM405.839 298.153C408.716 299.641 410.828 300.795 412.219 301.63L416.335 294.77C414.726 293.805 412.437 292.559 409.514 291.047L405.839 298.153ZM412.194 301.615C416.29 304.112 419.18 305.926 420.908 307.078L425.346 300.422C423.473 299.174 420.464 297.288 416.359 294.785L412.194 301.615ZM420.908 307.078C422.479 308.125 424.617 309.832 427.363 312.284L432.691 306.316C429.836 303.768 427.375 301.775 425.346 300.422L420.908 307.078ZM427.415 312.33C429.98 314.541 431.524 316.65 432.322 318.609L439.731 315.591C438.329 312.15 435.873 309.059 432.639 306.27L427.415 312.33ZM432.395 318.776C433.325 320.792 433.827 323.11 433.827 325.8H441.827C441.827 322.09 441.128 318.608 439.659 315.424L432.395 318.776ZM433.827 325.8C433.827 331.911 431.45 336.481 426.533 339.923L431.121 346.477C438.203 341.519 441.827 334.489 441.827 325.8H433.827ZM426.533 339.923C421.241 343.627 415.201 345.5 408.277 345.5V353.5C416.753 353.5 424.413 351.173 431.121 346.477L426.533 339.923Z" fill="white" mask="url(#path-17-outside-1_12_2)"/>
</svg>
