<svg xmlns="http://www.w3.org/2000/svg" xmlns:xlink="http://www.w3.org/1999/xlink" width="1200" height="1200" viewBox="0 0 1200 1200">
  <defs>
    <style>
      .cls-1 {
        stroke: #fff;
        stroke-width: 6.99px;
        fill-rule: evenodd;
        fill: url(#linear-gradient);
      }
    </style>
    <linearGradient id="linear-gradient" x1="599.986" y1="1157.06" x2="599.986" y2="41.813" gradientUnits="userSpaceOnUse">
      <stop offset="0" stop-color="#d12d9c"/>
      <stop offset="1" stop-color="#5ea2ef"/>
    </linearGradient>
  </defs>
  <path id="Фигура_10" data-name="Фигура 10" class="cls-1" d="M1150.93,452.775c34.62,23.309,59.15,95.48,23.56,131.074-6.76.281-10.03,3.834-19.33-2.661-11.72-7.061-16.02-65.637-40.23-95.984-5.7-4.663-6.24-5.394-11.31-3.7,0,33.507.73,70.769,0.73,102.35h-51c-0.56-.282.68-15.089,0.12-15.371,0-62.618,8.43-112.977-4.9-177.491-3.54-17.112,2.24-33.856,19.12-41.442,28.17-8.448,58.73,4.044,73.32,11.157,24.91,12.14,38.28,25.775,30.43,65.021C1167.78,433.325,1144.44,449.759,1150.93,452.775Zm-17.89-61.788c-7.16-12.572-23.06-11.228-22.31-11.158-19.64-1.823-27-.967-31.88,11.158-1.83,22.365,14.7,13.945,36.66,35.065C1135.68,445.447,1139.13,401.671,1133.04,390.987ZM1005.53,743.239c-19,4.015-37.969,1.211-38.251,6.375-1.886,34.463-10.033,65.425-11.955,108.34-0.29,6.477-.6,63.986,5.948,125.9,8.4,79.494-9.834,158.554-8.922,156.634,0.2-.42-30.423,90.59-34.7-149.694-0.239-13.441-1.761-101.3-4.956-131.851-3.464-33.123-11.667-72.631-13.955-112.518-0.255-4.444-15.029-5.251-25.5-7.97-14.253-3.7-20.381-19.758-20.72-25.5-0.468-7.909-2.476-19.171,9.563-28.691,10.105-7.99,45.858-8.644,44.629-14.345-5.535-25.695-20.088-50.123-6.375-60.568,12.214-9.3,29.758-10.081,41.441-4.782,19.155,8.688,26.109,26.876,25.5,65.35-0.054,3.4,20.294,2.055,35.061,6.376,24.25,7.093,44.96,26.981,44.63,33.472C1046.7,715.31,1028.55,738.375,1005.53,743.239ZM935.4,480.245c-27-8.546-38.127-10.735-47.817-9.563-9.517,1.15-38.355,36.832,39.847,44.629,62.747,6.256,93.909,8.818,91.1,31.286-23.511,47.019-165.235,46.387-191.515,6.968-27.318-40.978-29.576-91.737-23.908-137.076,2.566-20.527,21-51.944,41.441-62.162,183.4-33.681,206.252,84.087,168.952,125.918C996.418,499.4,980.083,504.478,935.4,480.245Zm36.659-82.883c-36.712-21.848-99.136-18.467-96.79,12.173-6.534,18.787,23.5,22.784,60.131,19.7,9.405-.79,20.271-6.263,30.284,3.188,6.372,6.015,13.654,29.583,15.939,27.1,2.6-2.826-6.648-19.879-6.376-30.284C975.642,414.179,983.533,404.19,972.06,397.362ZM756.884,556.752c-9.035,7.137-24.724,15.743-43.036,20.721-23,6.254-44.3,4.147-52.6,1.594-12.74-3.921-26.027-11.284-35.066-22.315C603.708,529.327,620.956,497.008,623,440.4c1.634-45.34-7.411-72.455,11.157-87.665,22.748-18.635,54.452,5.757,76.508-9.563,56.5-39.25-53.55-248.85,4.781-293.278,12.214-9.3,29.758-10.081,41.442-4.782,41.068,18.627,12.972,111.791,17.533,253.43C778.224,416.789,808.128,516.272,756.884,556.752Zm-15.939-97.228c-1.177-6.348.588-43.884-3.188-44.629l-17.533-12.751c-11.17-.541-40.526-7.282-44.629,1.594-2.818,6.1-10.465,39.467-12.752,60.568-6.644,61.316,8.557,63.575,28.691,57.38S748.029,497.764,740.945,459.524ZM625.112,733.333c-15.646,19.167-38.195,43.184-62.365-.29,3.947-16.924-44.086-10.449-52.961-9.277-8.716,1.151-35.129,36.848,36.495,44.648,57.469,6.258,86.007,8.821,83.434,31.3-21.531,47.039-151.334,46.407-175.4,6.971-25.02-40.995-27.088-91.776-21.9-137.134,3.421-29.895,13.816-42.186,26.239-51.5,19.341-14.507,41.682-15.367,35.512-14.592C640.276,585.105,657.588,693.549,625.112,733.333Zm-37.955-82.918c-33.625-21.857-90.8-18.475-88.649,12.178-5.984,18.8,21.524,22.793,55.073,19.713,8.613-.79,18.566-6.265,27.736,3.19,5.837,6.017,12.506,29.6,14.6,27.107,2.377-2.827-6.089-19.887-5.84-30.3C590.437,667.239,597.664,657.245,587.157,650.415Zm-48.638-69.754c-23.906-13.929,18.171-103.276-11.157-122.731-10.366-6.876-28.693-4.623-36.66,4.782-14.663,17.311,12.195,57.75,3.188,95.634-3.83,16.11-9.7,23.48-15.939,25.5-14.7,4.764-33.6-16.645-38.254-22.315C402.6,516.313,422.24,431.9,455.636,355.921l11.158-11.158a54.055,54.055,0,0,1,27.1-6.375c8.353,0.3,23.137,4.194,38.254,17.533,17.9,15.8,24.618,35.093,28.69,46.223,8.549,23.369,22.867,51.638,31.878,81.289,8.129,26.747,9.959,44.616,1.594,62.162C582.3,570.779,551.847,588.426,538.519,580.661ZM406.43,437.558c-12.236,38.167-34.937,71.151-65.555,98.474a155.615,155.615,0,0,1-98.822,47.817C177.98,586.379,115.3,567.8,70.194,524.5,11.134,467.8-1.292,378.433,14.126,282.6,36.756,141.937,139.492,43.288,152.795,51.486c9.622,5.929-32.466,83.42-39.848,180.111-7.518,98.5,17.285,155.411,44.63,176.923,18.4,14.48,41.252,22.1,66.944,23.909a112.767,112.767,0,0,0,76.507-39.848,250.228,250.228,0,0,0,15.939-33.471c13.538-34.873,19.981-75.811,15.939-122.731-8.75-101.573-73.638-176.436-66.944-181.7,8.211-6.462,119.215,84.573,146.639,218.365,10.867,53.018,6.8,106.126,0,140.263A220.253,220.253,0,0,1,406.43,437.558ZM33.086,750.191c11.84-38.291,34.2-71.509,64.532-99.146a155.62,155.62,0,0,1,98.322-48.837c64.044-3.193,126.915,14.734,172.464,57.568,59.643,56.088,72.994,145.32,58.568,241.306C405.8,1041.97,304.088,1141.68,290.7,1133.62c-9.682-5.83,31.6-83.75,37.983-180.514,6.5-98.569-18.892-155.223-46.457-176.452-18.553-14.288-41.479-21.676-67.188-23.215a112.774,112.774,0,0,0-76.091,40.637,250.249,250.249,0,0,0-15.592,33.635c-13.176,35.011-19.2,76.014-14.668,122.889,9.8,101.48,75.458,175.67,68.82,181-8.144,6.55-120.084-83.33-148.89-216.834-11.415-52.9-7.9-106.049-1.451-140.255A220.286,220.286,0,0,1,33.086,750.191Zm730.707-37.3c8.016-2.941,33.536-37.513-36.052-44.034-55.834-5.232-83.552-7.285-81.385-29.83,20.2-47.469,146.113-49.168,170.035-10.127,24.867,40.583,27.613,91.374,23.24,136.868-1.98,20.6-17.9,52.359-35.909,62.928-162.439,36.743-184.457-80.809-151.932-123.31,13.6-17.771,47.253-36.115,71.556-6.048C729.5,706.951,745.948,719.437,763.793,712.89ZM689.815,787.7c32.933,21.273,88.34,16.861,85.809-13.781,3.676-12.577-18.422-17.748-51.286-16.091-10.809.545-24.837-13.4-34.7-10.9C674.1,750.852,667.547,773.314,689.815,787.7ZM1026.7,898.959c21.78-17.842,38.37-12.457,59.48-27.126,54.1-37.579-37.5-220.288,18.34-262.825,11.7-8.907,28.5-9.652,39.68-4.579,39.32,17.834,12.42,107.033,16.79,242.644,3.64,113.216,35.36,225.647,3.05,270.117-13.62,18.74-26.9,30.71-39.82,37.14,10.34-24.07,16.93-60.48,16.93-101.24,0-72.482-20.84-131.24-46.54-131.24s-46.55,58.758-46.55,131.24c0,35.55,5.02,67.77,13.16,91.41-4.97-3.92-9.51-8.83-14.69-13.58-7.6-6.99-28.08-40.17-35.69-73.7-2.89-12.76-9.4-42.27-11.9-68.407C994.819,945.572,1008.92,913.522,1026.7,898.959Z"/>
</svg>
