<?xml version="1.0" encoding="UTF-8"?>
<!DOCTYPE svg PUBLIC "-//W3C//DTD SVG 1.1//EN" "http://www.w3.org/Graphics/SVG/1.1/DTD/svg11.dtd">
<!-- Creator: CorelDRAW X7 -->
<svg xmlns="http://www.w3.org/2000/svg" xml:space="preserve" width="33.8666mm" height="33.8666mm" version="1.1" style="shape-rendering:geometricPrecision; text-rendering:geometricPrecision; image-rendering:optimizeQuality; fill-rule:evenodd; clip-rule:evenodd"
viewBox="0 0 3387 3387"
 xmlns:xlink="http://www.w3.org/1999/xlink">
 <defs>
  <style type="text/css">
   <![CDATA[
    .str0 {stroke:#2B2A29;stroke-width:20}
    .fil0 {fill:#1F1B20}
   ]]>
  </style>
 </defs>
 <g id="Слой_x0020_1">
  <metadata id="CorelCorpID_0Corel-Layer"/>
  <path class="fil0 str0" d="M1745 1133l1247 702c0,0 207,-225 38,-468l-207 -131 394 -907c-65,-131 -84,-188 -290,-113l-544 767 -244 -131c-244,-28 -394,281 -394,281z"/>
  <path class="fil0 str0" d="M2908 2106l-1341 -748c-741,767 -1398,654 -1398,654l610 375 431 9 -178 131 319 196c328,-46 460,-37 807,-271 -104,234 -244,356 -385,515l478 233c282,-233 544,-664 657,-1094z"/>
 </g>
</svg>
