<?xml version="1.0" encoding="UTF-8"?>
<!DOCTYPE svg PUBLIC "-//W3C//DTD SVG 1.1//EN" "http://www.w3.org/Graphics/SVG/1.1/DTD/svg11.dtd">
<!-- Creator: CorelDRAW X7 -->
<svg xmlns="http://www.w3.org/2000/svg" xml:space="preserve" width="33.8666mm" height="33.8666mm" version="1.1" style="shape-rendering:geometricPrecision; text-rendering:geometricPrecision; image-rendering:optimizeQuality; fill-rule:evenodd; clip-rule:evenodd"
viewBox="0 0 3387 3387"
 xmlns:xlink="http://www.w3.org/1999/xlink">
 <defs>
  <style type="text/css">
   <![CDATA[
    .str0 {stroke:#2B2A29;stroke-width:17.64}
    .fil0 {fill:#2B2A29}
   ]]>
  </style>
 </defs>
 <g id="Слой_x0020_1">
  <metadata id="CorelCorpID_0Corel-Layer"/>
  <path class="fil0 str0" d="M1101 2692l694 0 -9 212 1389 0 0 -229 -855 0 0 -67 398 0 0 -906 -1854 0 -187 -1194 -474 -68 0 229 254 34 212 1321 -26 228c602,-101 466,347 458,440z"/>
  <path class="fil0 str0" d="M931 1626l-110 -712c212,0 568,-8 1059,0 491,9 872,466 812,712l-1761 0z"/>
  <ellipse class="fil0 str0" cx="711" cy="2625" rx="288" ry="296"/>
 </g>
</svg>
