<?xml version="1.0" encoding="UTF-8"?>
<!DOCTYPE svg PUBLIC "-//W3C//DTD SVG 1.1//EN" "http://www.w3.org/Graphics/SVG/1.1/DTD/svg11.dtd">
<!-- Creator: CorelDRAW X7 -->
<svg xmlns="http://www.w3.org/2000/svg" xml:space="preserve" width="33.8666mm" height="33.8666mm" version="1.1" style="shape-rendering:geometricPrecision; text-rendering:geometricPrecision; image-rendering:optimizeQuality; fill-rule:evenodd; clip-rule:evenodd"
viewBox="0 0 3387 3387"
 xmlns:xlink="http://www.w3.org/1999/xlink">
 <defs>
  <style type="text/css">
   <![CDATA[
    .fil0 {fill:#2B2A29}
   ]]>
  </style>
 </defs>
 <g id="Слой_x0020_1">
  <metadata id="CorelCorpID_0Corel-Layer"/>
  <path class="fil0" d="M1766 712c684,0 1239,555 1239,1240 0,685 -555,1240 -1239,1240 -685,0 -1240,-555 -1240,-1240 0,-685 555,-1240 1240,-1240zm-426 1499l188 -99c-136,-268 -50,-336 -6,-370 43,-34 54,72 54,72l42 -195 -163 -14 36 59c0,0 -287,46 -151,547zm814 77l-180 -112c-162,253 -265,212 -316,192 -51,-20 34,-83 34,-83l-189 62 71 148 32 -61c0,0 185,225 548,-146zm-344 -725l11 211c300,-11 326,96 338,150 13,54 -87,19 -87,19l159 120 81 -142 -69 8c0,0 79,-280 -433,-366z"/>
  <path class="fil0" d="M1280 301l60 -21c452,-230 908,0 908,0l-185 322c0,0 -543,0 -643,0l-140 -301z"/>
 </g>
</svg>
