<?xml version="1.0" encoding="UTF-8"?>
<!DOCTYPE svg PUBLIC "-//W3C//DTD SVG 1.1//EN" "http://www.w3.org/Graphics/SVG/1.1/DTD/svg11.dtd">
<!-- Creator: CorelDRAW X7 -->
<svg xmlns="http://www.w3.org/2000/svg" xml:space="preserve" width="84.6666mm" height="84.6666mm" version="1.1" style="shape-rendering:geometricPrecision; text-rendering:geometricPrecision; image-rendering:optimizeQuality; fill-rule:evenodd; clip-rule:evenodd"
viewBox="0 0 8467 8467"
 xmlns:xlink="http://www.w3.org/1999/xlink">
 <defs>
  <style type="text/css">
   <![CDATA[
    .fil0 {fill:#222221}
   ]]>
  </style>
 </defs>
 <g id="Слой_x0020_1">
  <metadata id="CorelCorpID_0Corel-Layer"/>
  <path id="XMLID_2333_" class="fil0" d="M6832 6725c-142,-148 -819,-869 -956,-982 -135,-116 -237,-183 -414,-60 -176,127 -646,381 -784,457 -141,75 -245,50 -383,-96 -138,-147 -619,-527 -1049,-1344 -335,-633 -471,-1311 -508,-1514 -33,-205 87,-262 201,-314 106,-48 244,-135 366,-199 33,-20 62,-38 91,-57 61,-46 111,-93 181,-162 99,-90 108,-200 97,-299 -10,-98 -42,-1054 -56,-1446 -15,-388 -177,-383 -276,-420 -96,-36 -205,-95 -317,-137 -112,-42 -312,-70 -533,41 -220,111 -806,354 -1117,1181 -73,195 -109,400 -128,605 -49,656 136,1283 169,1390 42,139 471,2301 1940,3624 1471,1317 1555,1093 1879,1182 320,90 1155,-27 1441,-372 290,-336 416,-675 398,-762 -8,-86 -107,-171 -242,-316z"/>
 </g>
</svg>
