<?xml version="1.0" encoding="UTF-8"?>
<!DOCTYPE svg PUBLIC "-//W3C//DTD SVG 1.1//EN" "http://www.w3.org/Graphics/SVG/1.1/DTD/svg11.dtd">
<!-- Creator: CorelDRAW X7 -->
<svg xmlns="http://www.w3.org/2000/svg" xml:space="preserve" width="84.6666mm" height="84.6666mm" version="1.1" style="shape-rendering:geometricPrecision; text-rendering:geometricPrecision; image-rendering:optimizeQuality; fill-rule:evenodd; clip-rule:evenodd"
viewBox="0 0 8467 8467"
 xmlns:xlink="http://www.w3.org/1999/xlink">
 <defs>
  <style type="text/css">
   <![CDATA[
    .fil0 {fill:#222221}
   ]]>
  </style>
 </defs>
 <g id="Слой_x0020_1">
  <metadata id="CorelCorpID_0Corel-Layer"/>
  <g id="XMLID_2331_">
   <g id="XMLID_2332_">
    <path id="XMLID_2334_" class="fil0" d="M7993 4044c-49,-1981 -1682,-3572 -3691,-3572 -1984,0 -3603,1554 -3690,3504 -2,52 -4,107 -4,160 0,693 193,1340 530,1894l-666 1965 2045 -651c530,291 1137,456 1785,456 2040,0 3693,-1641 3693,-3664 0,-31 0,-61 -2,-92zm-3690 3172c-630,0 -1217,-186 -1707,-510l-1192 381 388 -1144c-373,-509 -591,-1133 -591,-1807 0,-101 5,-200 15,-299 152,-1559 1481,-2781 3089,-2781 1631,0 2969,1253 3094,2839 7,81 10,159 10,241 -1,1699 -1395,3080 -3106,3080z"/>
    <path id="XMLID_2333_" class="fil0" d="M5995 4877c-92,-44 -536,-263 -619,-292 -84,-31 -144,-44 -205,44 -60,91 -236,292 -287,352 -53,60 -106,67 -196,22 -91,-44 -383,-138 -728,-445 -268,-238 -451,-531 -504,-620 -51,-91 -5,-138 40,-183 41,-41 90,-106 136,-157 12,-15 22,-29 33,-43 20,-32 36,-63 56,-107 31,-60 15,-113 -7,-157 -22,-45 -205,-487 -280,-668 -75,-179 -150,-148 -203,-148 -51,0 -113,-9 -172,-9 -60,0 -159,22 -243,113 -84,90 -316,307 -316,749 0,105 19,207 46,306 93,316 289,577 323,622 44,58 625,995 1545,1357 921,359 921,239 1088,224 166,-14 536,-215 610,-427 76,-209 76,-389 53,-427 -19,-39 -81,-62 -170,-106z"/>
   </g>
  </g>
 </g>
</svg>
